<?xml version="1.0" encoding="UTF-8" standalone="no"?>
<!DOCTYPE svg PUBLIC "-//W3C//DTD SVG 1.1//EN"
 "http://www.w3.org/Graphics/SVG/1.1/DTD/svg11.dtd">
<!-- Generated by graphviz version 6.0.2 (20221011.1828)
 -->
<!-- Pages: 1 -->
<svg width="532pt" height="476pt"
 viewBox="0.00 0.00 532.00 476.00" xmlns="http://www.w3.org/2000/svg" xmlns:xlink="http://www.w3.org/1999/xlink">
<g id="graph0" class="graph" transform="scale(1 1) rotate(0) translate(4 472)">
<polygon fill="white" stroke="none" points="-4,4 -4,-472 528,-472 528,4 -4,4"/>
<!-- 0 -->
<g id="node1" class="node">
<title>0</title>
<ellipse fill="none" stroke="black" cx="257" cy="-450" rx="27" ry="18"/>
<text text-anchor="middle" x="257" y="-446.3" font-family="Times New Roman,serif" font-size="14.00">R</text>
</g>
<!-- 1 -->
<g id="node2" class="node">
<title>1</title>
<ellipse fill="none" stroke="black" cx="219" cy="-378" rx="27" ry="18"/>
<text text-anchor="middle" x="219" y="-374.3" font-family="Times New Roman,serif" font-size="14.00">S</text>
</g>
<!-- 0&#45;&gt;1 -->
<g id="edge1" class="edge">
<title>0&#45;&gt;1</title>
<path fill="none" stroke="black" d="M248.19,-432.76C243.58,-424.28 237.84,-413.71 232.68,-404.2"/>
<polygon fill="black" stroke="black" points="235.61,-402.27 227.77,-395.15 229.46,-405.61 235.61,-402.27"/>
</g>
<!-- 8 -->
<g id="node9" class="node">
<title>8</title>
<ellipse fill="none" stroke="black" cx="295" cy="-378" rx="30.59" ry="18"/>
<text text-anchor="middle" x="295" y="-374.3" font-family="Times New Roman,serif" font-size="14.00">PIER</text>
</g>
<!-- 0&#45;&gt;8 -->
<g id="edge8" class="edge">
<title>0&#45;&gt;8</title>
<path fill="none" stroke="black" d="M265.81,-432.76C270.35,-424.4 275.99,-414.02 281.1,-404.61"/>
<polygon fill="black" stroke="black" points="284.28,-406.09 285.97,-395.63 278.12,-402.75 284.28,-406.09"/>
</g>
<!-- 2 -->
<g id="node3" class="node">
<title>2</title>
<ellipse fill="none" stroke="black" cx="149" cy="-306" rx="27" ry="18"/>
<text text-anchor="middle" x="149" y="-302.3" font-family="Times New Roman,serif" font-size="14.00">T</text>
</g>
<!-- 1&#45;&gt;2 -->
<g id="edge2" class="edge">
<title>1&#45;&gt;2</title>
<path fill="none" stroke="black" d="M204.5,-362.5C194.73,-352.73 181.69,-339.69 170.7,-328.7"/>
<polygon fill="black" stroke="black" points="173.03,-326.08 163.49,-321.49 168.08,-331.03 173.03,-326.08"/>
</g>
<!-- 7 -->
<g id="node8" class="node">
<title>7</title>
<ellipse fill="none" stroke="black" cx="221" cy="-306" rx="27" ry="18"/>
<text text-anchor="middle" x="221" y="-302.3" font-family="Times New Roman,serif" font-size="14.00">Eps</text>
</g>
<!-- 1&#45;&gt;7 -->
<g id="edge7" class="edge">
<title>1&#45;&gt;7</title>
<path fill="none" stroke="black" d="M219.49,-359.7C219.71,-351.98 219.98,-342.71 220.23,-334.11"/>
<polygon fill="black" stroke="black" points="223.72,-334.2 220.51,-324.1 216.73,-334 223.72,-334.2"/>
</g>
<!-- 3 -->
<g id="node4" class="node">
<title>3</title>
<ellipse fill="none" stroke="black" cx="82" cy="-234" rx="27" ry="18"/>
<text text-anchor="middle" x="82" y="-230.3" font-family="Times New Roman,serif" font-size="14.00">F</text>
</g>
<!-- 2&#45;&gt;3 -->
<g id="edge3" class="edge">
<title>2&#45;&gt;3</title>
<path fill="none" stroke="black" d="M135.12,-290.5C125.86,-280.83 113.53,-267.94 103.07,-257.02"/>
<polygon fill="black" stroke="black" points="105.31,-254.29 95.86,-249.49 100.25,-259.13 105.31,-254.29"/>
</g>
<!-- 6 -->
<g id="node7" class="node">
<title>6</title>
<ellipse fill="none" stroke="black" cx="154" cy="-234" rx="27" ry="18"/>
<text text-anchor="middle" x="154" y="-230.3" font-family="Times New Roman,serif" font-size="14.00">Eps</text>
</g>
<!-- 2&#45;&gt;6 -->
<g id="edge6" class="edge">
<title>2&#45;&gt;6</title>
<path fill="none" stroke="black" d="M150.24,-287.7C150.79,-279.98 151.45,-270.71 152.06,-262.11"/>
<polygon fill="black" stroke="black" points="155.56,-262.33 152.78,-252.1 148.57,-261.83 155.56,-262.33"/>
</g>
<!-- 4 -->
<g id="node5" class="node">
<title>4</title>
<ellipse fill="none" stroke="black" cx="27" cy="-162" rx="27" ry="18"/>
<text text-anchor="middle" x="27" y="-158.3" font-family="Times New Roman,serif" font-size="14.00">N</text>
</g>
<!-- 3&#45;&gt;4 -->
<g id="edge4" class="edge">
<title>3&#45;&gt;4</title>
<path fill="none" stroke="black" d="M70.07,-217.81C62.79,-208.55 53.34,-196.52 45.15,-186.09"/>
<polygon fill="black" stroke="black" points="47.84,-183.86 38.91,-178.16 42.34,-188.18 47.84,-183.86"/>
</g>
<!-- 5 -->
<g id="node6" class="node">
<title>5</title>
<ellipse fill="none" stroke="black" cx="99" cy="-162" rx="27" ry="18"/>
<text text-anchor="middle" x="99" y="-158.3" font-family="Times New Roman,serif" font-size="14.00">Eps</text>
</g>
<!-- 3&#45;&gt;5 -->
<g id="edge5" class="edge">
<title>3&#45;&gt;5</title>
<path fill="none" stroke="black" d="M86.12,-216.05C88.01,-208.26 90.3,-198.82 92.42,-190.08"/>
<polygon fill="black" stroke="black" points="95.85,-190.82 94.8,-180.28 89.04,-189.17 95.85,-190.82"/>
</g>
<!-- 9 -->
<g id="node10" class="node">
<title>9</title>
<ellipse fill="none" stroke="black" cx="294" cy="-306" rx="27" ry="18"/>
<text text-anchor="middle" x="294" y="-302.3" font-family="Times New Roman,serif" font-size="14.00">S</text>
</g>
<!-- 8&#45;&gt;9 -->
<g id="edge9" class="edge">
<title>8&#45;&gt;9</title>
<path fill="none" stroke="black" d="M294.75,-359.7C294.64,-351.98 294.51,-342.71 294.39,-334.11"/>
<polygon fill="black" stroke="black" points="297.89,-334.05 294.24,-324.1 290.89,-334.15 297.89,-334.05"/>
</g>
<!-- 28 -->
<g id="node29" class="node">
<title>28</title>
<ellipse fill="none" stroke="black" cx="366" cy="-306" rx="27" ry="18"/>
<text text-anchor="middle" x="366" y="-302.3" font-family="Times New Roman,serif" font-size="14.00">Eps</text>
</g>
<!-- 8&#45;&gt;28 -->
<g id="edge28" class="edge">
<title>8&#45;&gt;28</title>
<path fill="none" stroke="black" d="M310.06,-362.15C319.98,-352.37 333.13,-339.4 344.19,-328.5"/>
<polygon fill="black" stroke="black" points="346.79,-330.86 351.45,-321.35 341.87,-325.87 346.79,-330.86"/>
</g>
<!-- 10 -->
<g id="node11" class="node">
<title>10</title>
<ellipse fill="none" stroke="black" cx="285" cy="-234" rx="27" ry="18"/>
<text text-anchor="middle" x="285" y="-230.3" font-family="Times New Roman,serif" font-size="14.00">T</text>
</g>
<!-- 9&#45;&gt;10 -->
<g id="edge10" class="edge">
<title>9&#45;&gt;10</title>
<path fill="none" stroke="black" d="M291.82,-288.05C290.83,-280.35 289.63,-271.03 288.52,-262.36"/>
<polygon fill="black" stroke="black" points="291.97,-261.75 287.22,-252.28 285.02,-262.64 291.97,-261.75"/>
</g>
<!-- 21 -->
<g id="node22" class="node">
<title>21</title>
<ellipse fill="none" stroke="black" cx="425" cy="-234" rx="30.59" ry="18"/>
<text text-anchor="middle" x="425" y="-230.3" font-family="Times New Roman,serif" font-size="14.00">XOR</text>
</g>
<!-- 9&#45;&gt;21 -->
<g id="edge21" class="edge">
<title>9&#45;&gt;21</title>
<path fill="none" stroke="black" d="M314.47,-294.06C335.78,-282.67 369.42,-264.7 394,-251.57"/>
<polygon fill="black" stroke="black" points="395.76,-254.6 402.93,-246.8 392.46,-248.42 395.76,-254.6"/>
</g>
<!-- 11 -->
<g id="node12" class="node">
<title>11</title>
<ellipse fill="none" stroke="black" cx="206" cy="-162" rx="27" ry="18"/>
<text text-anchor="middle" x="206" y="-158.3" font-family="Times New Roman,serif" font-size="14.00">F</text>
</g>
<!-- 10&#45;&gt;11 -->
<g id="edge11" class="edge">
<title>10&#45;&gt;11</title>
<path fill="none" stroke="black" d="M269.39,-219.17C257.92,-209.01 242.15,-195.03 229.21,-183.56"/>
<polygon fill="black" stroke="black" points="231.38,-180.81 221.58,-176.8 226.74,-186.05 231.38,-180.81"/>
</g>
<!-- 16 -->
<g id="node17" class="node">
<title>16</title>
<ellipse fill="none" stroke="black" cx="285" cy="-162" rx="27" ry="18"/>
<text text-anchor="middle" x="285" y="-158.3" font-family="Times New Roman,serif" font-size="14.00">OR</text>
</g>
<!-- 10&#45;&gt;16 -->
<g id="edge16" class="edge">
<title>10&#45;&gt;16</title>
<path fill="none" stroke="black" d="M285,-215.7C285,-207.98 285,-198.71 285,-190.11"/>
<polygon fill="black" stroke="black" points="288.5,-190.1 285,-180.1 281.5,-190.1 288.5,-190.1"/>
</g>
<!-- 12 -->
<g id="node13" class="node">
<title>12</title>
<ellipse fill="none" stroke="black" cx="131" cy="-90" rx="27" ry="18"/>
<text text-anchor="middle" x="131" y="-86.3" font-family="Times New Roman,serif" font-size="14.00">N</text>
</g>
<!-- 11&#45;&gt;12 -->
<g id="edge12" class="edge">
<title>11&#45;&gt;12</title>
<path fill="none" stroke="black" d="M190.82,-146.83C180.15,-136.87 165.68,-123.37 153.65,-112.14"/>
<polygon fill="black" stroke="black" points="155.85,-109.41 146.15,-105.14 151.08,-114.53 155.85,-109.41"/>
</g>
<!-- 13 -->
<g id="node14" class="node">
<title>13</title>
<ellipse fill="none" stroke="black" cx="206" cy="-90" rx="29.8" ry="18"/>
<text text-anchor="middle" x="206" y="-86.3" font-family="Times New Roman,serif" font-size="14.00">AND</text>
</g>
<!-- 11&#45;&gt;13 -->
<g id="edge13" class="edge">
<title>11&#45;&gt;13</title>
<path fill="none" stroke="black" d="M206,-143.7C206,-135.98 206,-126.71 206,-118.11"/>
<polygon fill="black" stroke="black" points="209.5,-118.1 206,-108.1 202.5,-118.1 209.5,-118.1"/>
</g>
<!-- 14 -->
<g id="node15" class="node">
<title>14</title>
<ellipse fill="none" stroke="black" cx="134" cy="-18" rx="27" ry="18"/>
<text text-anchor="middle" x="134" y="-14.3" font-family="Times New Roman,serif" font-size="14.00">N</text>
</g>
<!-- 13&#45;&gt;14 -->
<g id="edge14" class="edge">
<title>13&#45;&gt;14</title>
<path fill="none" stroke="black" d="M190.73,-74.15C180.67,-64.37 167.33,-51.4 156.11,-40.5"/>
<polygon fill="black" stroke="black" points="158.36,-37.81 148.75,-33.35 153.49,-42.83 158.36,-37.81"/>
</g>
<!-- 15 -->
<g id="node16" class="node">
<title>15</title>
<ellipse fill="none" stroke="black" cx="206" cy="-18" rx="27" ry="18"/>
<text text-anchor="middle" x="206" y="-14.3" font-family="Times New Roman,serif" font-size="14.00">Eps</text>
</g>
<!-- 13&#45;&gt;15 -->
<g id="edge15" class="edge">
<title>13&#45;&gt;15</title>
<path fill="none" stroke="black" d="M206,-71.7C206,-63.98 206,-54.71 206,-46.11"/>
<polygon fill="black" stroke="black" points="209.5,-46.1 206,-36.1 202.5,-46.1 209.5,-46.1"/>
</g>
<!-- 17 -->
<g id="node18" class="node">
<title>17</title>
<ellipse fill="none" stroke="black" cx="281" cy="-90" rx="27" ry="18"/>
<text text-anchor="middle" x="281" y="-86.3" font-family="Times New Roman,serif" font-size="14.00">F</text>
</g>
<!-- 16&#45;&gt;17 -->
<g id="edge17" class="edge">
<title>16&#45;&gt;17</title>
<path fill="none" stroke="black" d="M284.01,-143.7C283.57,-135.98 283.04,-126.71 282.55,-118.11"/>
<polygon fill="black" stroke="black" points="286.04,-117.89 281.98,-108.1 279.05,-118.29 286.04,-117.89"/>
</g>
<!-- 20 -->
<g id="node21" class="node">
<title>20</title>
<ellipse fill="none" stroke="black" cx="353" cy="-90" rx="27" ry="18"/>
<text text-anchor="middle" x="353" y="-86.3" font-family="Times New Roman,serif" font-size="14.00">Eps</text>
</g>
<!-- 16&#45;&gt;20 -->
<g id="edge20" class="edge">
<title>16&#45;&gt;20</title>
<path fill="none" stroke="black" d="M299.09,-146.5C308.57,-136.73 321.24,-123.69 331.92,-112.7"/>
<polygon fill="black" stroke="black" points="334.47,-115.1 338.93,-105.49 329.45,-110.22 334.47,-115.1"/>
</g>
<!-- 18 -->
<g id="node19" class="node">
<title>18</title>
<ellipse fill="none" stroke="black" cx="279" cy="-18" rx="27" ry="18"/>
<text text-anchor="middle" x="279" y="-14.3" font-family="Times New Roman,serif" font-size="14.00">N</text>
</g>
<!-- 17&#45;&gt;18 -->
<g id="edge18" class="edge">
<title>17&#45;&gt;18</title>
<path fill="none" stroke="black" d="M280.51,-71.7C280.29,-63.98 280.02,-54.71 279.77,-46.11"/>
<polygon fill="black" stroke="black" points="283.27,-46 279.49,-36.1 276.28,-46.2 283.27,-46"/>
</g>
<!-- 19 -->
<g id="node20" class="node">
<title>19</title>
<ellipse fill="none" stroke="black" cx="351" cy="-18" rx="27" ry="18"/>
<text text-anchor="middle" x="351" y="-14.3" font-family="Times New Roman,serif" font-size="14.00">Eps</text>
</g>
<!-- 17&#45;&gt;19 -->
<g id="edge19" class="edge">
<title>17&#45;&gt;19</title>
<path fill="none" stroke="black" d="M295.5,-74.5C305.27,-64.73 318.31,-51.69 329.3,-40.7"/>
<polygon fill="black" stroke="black" points="331.92,-43.03 336.51,-33.49 326.97,-38.08 331.92,-43.03"/>
</g>
<!-- 22 -->
<g id="node23" class="node">
<title>22</title>
<ellipse fill="none" stroke="black" cx="425" cy="-162" rx="27" ry="18"/>
<text text-anchor="middle" x="425" y="-158.3" font-family="Times New Roman,serif" font-size="14.00">T</text>
</g>
<!-- 21&#45;&gt;22 -->
<g id="edge22" class="edge">
<title>21&#45;&gt;22</title>
<path fill="none" stroke="black" d="M425,-215.7C425,-207.98 425,-198.71 425,-190.11"/>
<polygon fill="black" stroke="black" points="428.5,-190.1 425,-180.1 421.5,-190.1 428.5,-190.1"/>
</g>
<!-- 27 -->
<g id="node28" class="node">
<title>27</title>
<ellipse fill="none" stroke="black" cx="497" cy="-162" rx="27" ry="18"/>
<text text-anchor="middle" x="497" y="-158.3" font-family="Times New Roman,serif" font-size="14.00">Eps</text>
</g>
<!-- 21&#45;&gt;27 -->
<g id="edge27" class="edge">
<title>21&#45;&gt;27</title>
<path fill="none" stroke="black" d="M440.27,-218.15C450.33,-208.37 463.67,-195.4 474.89,-184.5"/>
<polygon fill="black" stroke="black" points="477.51,-186.83 482.25,-177.35 472.64,-181.81 477.51,-186.83"/>
</g>
<!-- 23 -->
<g id="node24" class="node">
<title>23</title>
<ellipse fill="none" stroke="black" cx="425" cy="-90" rx="27" ry="18"/>
<text text-anchor="middle" x="425" y="-86.3" font-family="Times New Roman,serif" font-size="14.00">F</text>
</g>
<!-- 22&#45;&gt;23 -->
<g id="edge23" class="edge">
<title>22&#45;&gt;23</title>
<path fill="none" stroke="black" d="M425,-143.7C425,-135.98 425,-126.71 425,-118.11"/>
<polygon fill="black" stroke="black" points="428.5,-118.1 425,-108.1 421.5,-118.1 428.5,-118.1"/>
</g>
<!-- 26 -->
<g id="node27" class="node">
<title>26</title>
<ellipse fill="none" stroke="black" cx="497" cy="-90" rx="27" ry="18"/>
<text text-anchor="middle" x="497" y="-86.3" font-family="Times New Roman,serif" font-size="14.00">Eps</text>
</g>
<!-- 22&#45;&gt;26 -->
<g id="edge26" class="edge">
<title>22&#45;&gt;26</title>
<path fill="none" stroke="black" d="M439.57,-146.83C449.75,-136.94 463.52,-123.55 475.03,-112.36"/>
<polygon fill="black" stroke="black" points="477.47,-114.87 482.2,-105.38 472.59,-109.85 477.47,-114.87"/>
</g>
<!-- 24 -->
<g id="node25" class="node">
<title>24</title>
<ellipse fill="none" stroke="black" cx="424" cy="-18" rx="27" ry="18"/>
<text text-anchor="middle" x="424" y="-14.3" font-family="Times New Roman,serif" font-size="14.00">N</text>
</g>
<!-- 23&#45;&gt;24 -->
<g id="edge24" class="edge">
<title>23&#45;&gt;24</title>
<path fill="none" stroke="black" d="M424.75,-71.7C424.64,-63.98 424.51,-54.71 424.39,-46.11"/>
<polygon fill="black" stroke="black" points="427.89,-46.05 424.24,-36.1 420.89,-46.15 427.89,-46.05"/>
</g>
<!-- 25 -->
<g id="node26" class="node">
<title>25</title>
<ellipse fill="none" stroke="black" cx="496" cy="-18" rx="27" ry="18"/>
<text text-anchor="middle" x="496" y="-14.3" font-family="Times New Roman,serif" font-size="14.00">Eps</text>
</g>
<!-- 23&#45;&gt;25 -->
<g id="edge25" class="edge">
<title>23&#45;&gt;25</title>
<path fill="none" stroke="black" d="M439.71,-74.5C449.61,-64.73 462.84,-51.69 473.99,-40.7"/>
<polygon fill="black" stroke="black" points="476.64,-43 481.31,-33.49 471.73,-38.01 476.64,-43"/>
</g>
</g>
</svg>
